<svg xmlns="http://www.w3.org/2000/svg" width="40" height="37.241" viewBox="0 0 40 37.241">
  <g id="coding" transform="translate(0 -17.655)">
    <path id="Path_4" data-name="Path 4" d="M166.794,461.823H150.069a2.788,2.788,0,0,1,2.788-2.788h11.15a2.788,2.788,0,0,1,2.788,2.788" transform="translate(-138.432 -406.926)" fill="#e8edee"/>
    <path id="Path_5" data-name="Path 5" d="M203.963,393.989h-9.756l1.394-5.575h6.969Z" transform="translate(-179.085 -341.88)" fill="#b0b6bb"/>
    <path id="Path_6" data-name="Path 6" d="M40,41.349H0V20.094a2.427,2.427,0,0,1,2.414-2.439H37.586A2.427,2.427,0,0,1,40,20.094V41.349Z" transform="translate(0 0)" fill="#38454f"/>
    <path id="Path_7" data-name="Path 7" d="M37.586,323.368H2.414A2.427,2.427,0,0,1,0,320.929v-3.136H40v3.136a2.427,2.427,0,0,1-2.414,2.439" transform="translate(0 -276.733)" fill="#e8edee"/>
    <g id="Group_35" data-name="Group 35" transform="translate(5.575 20.442)">
      <path id="Path_8" data-name="Path 8" d="M302.46,266.221H292.007a.7.7,0,1,1,0-1.394H302.46a.7.7,0,1,1,0,1.394" transform="translate(-274.307 -248.101)" fill="#ea6148"/>
      <path id="Path_9" data-name="Path 9" d="M78.286,213.255H71.317a.7.7,0,1,1,0-1.394h6.969a.7.7,0,1,1,0,1.394" transform="translate(-70.62 -199.317)" fill="#ea6148"/>
      <path id="Path_10" data-name="Path 10" d="M258.322,213.255H247.869a.7.7,0,1,1,0-1.394h10.453a.7.7,0,1,1,0,1.394" transform="translate(-233.654 -199.317)" fill="#ea6148"/>
      <path id="Path_11" data-name="Path 11" d="M203.732,213.3a.694.694,0,0,1-.265-.056.7.7,0,1,1,.76-1.136.7.7,0,0,1-.495,1.192" transform="translate(-192.739 -199.362)" fill="#ea6148"/>
      <path id="Path_12" data-name="Path 12" d="M125.908,266.221H115.455a.7.7,0,1,1,0-1.394h10.453a.7.7,0,0,1,0,1.394" transform="translate(-111.274 -248.101)" fill="#ea6148"/>
      <path id="Path_13" data-name="Path 13" d="M71.318,266.246a.694.694,0,0,1-.265-.056.8.8,0,0,1-.23-.146.716.716,0,0,1-.2-.495.694.694,0,0,1,.056-.265.672.672,0,0,1,.773-.418.425.425,0,0,1,.133.042.4.4,0,0,1,.119.063c.041.028.077.056.111.084a.722.722,0,0,1,.146.23.694.694,0,0,1,.056.265.72.72,0,0,1-.2.495c-.035.028-.07.056-.111.084a.393.393,0,0,1-.119.063.427.427,0,0,1-.133.042.835.835,0,0,1-.132.014" transform="translate(-70.621 -248.126)" fill="#ea6148"/>
      <path id="Path_14" data-name="Path 14" d="M424.422,213.248a.839.839,0,0,1-.132-.014.421.421,0,0,1-.132-.042.546.546,0,0,1-.126-.063l-.1-.084a.707.707,0,0,1,0-.99l.1-.084a.543.543,0,0,1,.126-.063.422.422,0,0,1,.132-.042.7.7,0,0,1,.627.188c.028.035.056.07.084.111a.736.736,0,0,1,.1.251.773.773,0,0,1,.015.132.942.942,0,0,1-.015.139.417.417,0,0,1-.041.125.558.558,0,0,1-.063.125l-.084.1-.1.084a.539.539,0,0,1-.125.063.424.424,0,0,1-.133.042.824.824,0,0,1-.132.014" transform="translate(-396.269 -199.31)" fill="#ea6148"/>
      <path id="Path_15" data-name="Path 15" d="M302.46,107.324H292.007a.7.7,0,1,1,0-1.394H302.46a.7.7,0,1,1,0,1.394" transform="translate(-274.307 -101.748)" fill="#ea6148"/>
      <path id="Path_16" data-name="Path 16" d="M343.114,160.29h-6.969a.7.7,0,0,1,0-1.394h6.969a.7.7,0,1,1,0,1.394" transform="translate(-314.961 -150.533)" fill="#ea6148"/>
      <path id="Path_17" data-name="Path 17" d="M249.263,160.29h-1.394a.7.7,0,1,1,0-1.394h1.394a.7.7,0,0,1,0,1.394" transform="translate(-233.455 -150.533)" fill="#ea6148"/>
      <path id="Path_18" data-name="Path 18" d="M258.322,54.359H247.869a.7.7,0,1,1,0-1.394h10.453a.7.7,0,1,1,0,1.394" transform="translate(-233.654 -52.964)" fill="#ea6148"/>
      <path id="Path_19" data-name="Path 19" d="M424.422,54.352a.835.835,0,0,1-.132-.014.419.419,0,0,1-.132-.042.546.546,0,0,1-.126-.063l-.1-.084a.707.707,0,0,1,0-.99l.1-.084a.543.543,0,0,1,.126-.063.422.422,0,0,1,.132-.042.7.7,0,0,1,.627.188c.028.035.056.07.084.111a.736.736,0,0,1,.1.251.773.773,0,0,1,.015.132.943.943,0,0,1-.015.139.417.417,0,0,1-.041.125.557.557,0,0,1-.063.125l-.084.1-.1.084a.539.539,0,0,1-.125.063.425.425,0,0,1-.133.042.832.832,0,0,1-.132.014" transform="translate(-396.269 -52.958)" fill="#ea6148"/>
      <path id="Path_20" data-name="Path 20" d="M256.7,107.35a.731.731,0,0,1-.495-.2.807.807,0,0,1-.146-.23.657.657,0,0,1,0-.53.8.8,0,0,1,.146-.23.714.714,0,0,1,.626-.188.423.423,0,0,1,.133.042.4.4,0,0,1,.118.063.718.718,0,0,1,.1.084.723.723,0,0,1,.209.495.693.693,0,0,1-.056.265.7.7,0,0,1-.153.23.719.719,0,0,1-.1.084.394.394,0,0,1-.118.063.426.426,0,0,1-.133.042.832.832,0,0,1-.132.014" transform="translate(-241.586 -101.774)" fill="#ea6148"/>
      <path id="Path_21" data-name="Path 21" d="M300.835,160.392a.717.717,0,0,1-.495-.2.7.7,0,1,1,1.192-.495.861.861,0,0,1-.015.139.416.416,0,0,1-.041.125.552.552,0,0,1-.063.125l-.084.1a.72.72,0,0,1-.495.2" transform="translate(-282.291 -150.635)" fill="#ea6148"/>
    </g>
    <path id="Path_22" data-name="Path 22" d="M79.448,62.722H89.2V52.966H79.448Z" transform="translate(-73.262 -32.523)" fill="#ecba16"/>
  </g>
</svg>
