<svg xmlns="http://www.w3.org/2000/svg" width="35" height="35" viewBox="0 0 35 35">
  <g id="deployment" transform="translate(-2 -1.999)">
    <path id="Path_30" data-name="Path 30" d="M35.833,13.083a1.75,1.75,0,0,0-1.75-1.75h-5.25a9.338,9.338,0,0,0-.058-1.019c-.013-.125-.038-.247-.058-.371-.031-.205-.062-.408-.107-.612-.033-.151-.075-.3-.117-.449-.046-.167-.092-.332-.147-.5s-.111-.316-.175-.471-.121-.292-.187-.439-.142-.308-.221-.458-.163-.292-.248-.435-.156-.269-.243-.4c-.152-.229-.316-.449-.487-.663-.029-.036-.054-.075-.083-.111a9.458,9.458,0,0,0-.7-.758c-.032-.03-.065-.058-.1-.087q-.335-.318-.7-.6c-.019-.015-.036-.032-.055-.047l-.342-.26-.008.005A9.305,9.305,0,0,0,11.15,7.181l-.01,0-.117.245c-.006.015-.011.03-.017.044q-.183.4-.327.82c-.013.036-.027.072-.04.108-.089.267-.163.538-.227.817-.012.051-.028.1-.039.152-.058.26-.1.525-.131.793-.008.062-.022.124-.029.187a9.49,9.49,0,0,0-.047.984H4.917a1.75,1.75,0,0,0-1.75,1.75V33.5H2v1.75A1.75,1.75,0,0,0,3.75,37h31.5A1.75,1.75,0,0,0,37,35.249V33.5H35.833ZM11.375,10.516a8.084,8.084,0,0,1,.6-2.343,3.623,3.623,0,0,1,3.657,1.434l.275.384a3.6,3.6,0,0,1,.677,2.107,4.8,4.8,0,0,0,2.846,4.378h0a4.559,4.559,0,0,1,2.445,2.663c-.179.058-.359.1-.54.145l-.053.014c-.128.029-.258.051-.388.073s-.253.043-.381.058c-.1.012-.193.024-.292.033-.239.021-.478.037-.722.037a8.175,8.175,0,0,1-8.164-8.167C11.333,11.057,11.348,10.785,11.375,10.516ZM19.5,20.666c.295,0,.588-.016.88-.044.167-.016.33-.044.495-.068.117-.017.229-.031.343-.053.219-.041.433-.093.647-.149.054-.015.109-.027.162-.042.233-.066.467-.143.69-.226.024-.009.05-.015.075-.025l.274-.1c.023-.01.047-.017.071-.027l.129-.048,0-.012a9.378,9.378,0,0,0,4.642-4.5l.012-.006L28,15.172c.006-.012.009-.025.015-.037.045-.1.089-.2.131-.3h4.187V31.166H6.667V14.833h4.187A9.343,9.343,0,0,0,19.5,20.666ZM27.02,14.5l-.805.4a1.8,1.8,0,0,1-1.7-.047l-.26-.148a1.805,1.805,0,0,1-.381-2.843,2.975,2.975,0,0,0,.479-3.575l-.36-.626A1.8,1.8,0,0,1,24.51,5.3l.267-.191a8.31,8.31,0,0,1,.607.573c.05.052.1.107.146.16q.2.219.384.45.106.135.205.275c.09.124.175.25.259.379s.146.233.214.35.127.233.187.35c.067.132.134.265.193.4.052.117.1.233.142.356.054.139.108.278.155.421s.076.265.111.4.075.268.1.408c.035.166.058.334.083.5.016.111.039.219.051.332a8.306,8.306,0,0,1,.048.863A8.115,8.115,0,0,1,27.02,14.5ZM19.5,3.166a8.1,8.1,0,0,1,4.286,1.228,2.959,2.959,0,0,0-.806,3.85l.358.626a1.808,1.808,0,0,1-.292,2.171,2.971,2.971,0,0,0,.626,4.68l.26.149a2.94,2.94,0,0,0,2.113.321,8.2,8.2,0,0,1-3.087,2.526A5.729,5.729,0,0,0,19.9,15.41h0A3.628,3.628,0,0,1,17.75,12.1a4.763,4.763,0,0,0-.892-2.785l-.274-.385a4.783,4.783,0,0,0-3.961-1.979A8.159,8.159,0,0,1,19.5,3.166ZM4.333,13.083a.583.583,0,0,1,.583-.583h5.331a9.182,9.182,0,0,0,.226,1.167H5.5V32.332h28V13.666H28.526c.024-.094.051-.187.073-.282.008-.036.02-.071.028-.107.054-.255.093-.515.125-.777h5.331a.583.583,0,0,1,.583.583V33.5H4.333Zm31.5,22.166a.583.583,0,0,1-.583.583H3.75a.583.583,0,0,1-.583-.583v-.583H35.833Z" transform="translate(0 0)"/>
    <path id="Path_31" data-name="Path 31" d="M26.265,44.372h4.674V42.035h2.439L28.6,36.463l-4.776,5.572h2.439ZM28.6,38.259l2.235,2.607H29.77V43.2H27.433V40.866H26.366Z" transform="translate(-9.102 -14.37)"/>
  </g>
</svg>
