<svg xmlns="http://www.w3.org/2000/svg" width="40" height="40" viewBox="0 0 40 40">
  <g id="dynamic" transform="translate(-2 -2)">
    <path id="Path_23" data-name="Path 23" d="M45.361,6.047a.6.6,0,0,0-.192.122.672.672,0,0,0-.122.192A.582.582,0,0,0,45,6.583.612.612,0,0,0,45.169,7a.6.6,0,0,0,.192.122.581.581,0,1,0,0-1.071Z" transform="translate(-17.915 -1.672)"/>
    <path id="Path_24" data-name="Path 24" d="M50,6.17a.582.582,0,0,0-.634-.122.6.6,0,0,0-.192.122.543.543,0,0,0-.122.192A.582.582,0,0,0,49,6.583a.559.559,0,0,0,.361.536.582.582,0,0,0,.221.047A.6.6,0,0,0,50,7a.612.612,0,0,0,.169-.413.582.582,0,0,0-.047-.221A.6.6,0,0,0,50,6.17Z" transform="translate(-19.581 -1.672)"/>
    <path id="Path_25" data-name="Path 25" d="M54.118,6.358a.441.441,0,0,0-.052-.1A.919.919,0,0,0,54,6.166a.585.585,0,1,0,.169.413.713.713,0,0,0-.012-.111.349.349,0,0,0-.035-.111Z" transform="translate(-21.239 -1.669)"/>
    <path id="Path_26" data-name="Path 26" d="M12.666,33.21a3.26,3.26,0,0,0,1.668,1.362,2.323,2.323,0,0,0,1.706,1.952,2.354,2.354,0,0,0,.607.08A2.319,2.319,0,0,0,18.9,34.8c.089-.015.175-.029.267-.045,1.057,2.97,2.7,4.854,4.588,4.854s3.532-1.885,4.589-4.856a13,13,0,0,0,2.328.233c1.979,0,3.482-.582,4.174-1.782a3.256,3.256,0,0,0,.349-2.124,2.328,2.328,0,0,0-2.015-4.1c-.024.006-.045.019-.07.026-.058-.069-.113-.138-.175-.207,2.043-2.4,2.852-4.768,1.91-6.4s-3.4-2.117-6.5-1.546C27.289,15.885,25.643,14,23.757,14a3.26,3.26,0,0,0-2.014.763A2.323,2.323,0,0,0,19.258,18.6c-.031.084-.063.168-.093.253-3.1-.57-5.556-.087-6.5,1.547s-.133,4,1.912,6.4C12.533,29.208,11.723,31.576,12.666,33.21Zm5.1,1.367a1.164,1.164,0,1,1-.116-.884,1.164,1.164,0,0,1,.116.884Zm1.334-7.77c0-.894.047-1.771.129-2.624.679-.48,1.41-.953,2.2-1.409s1.572-.857,2.328-1.206c.757.349,1.536.747,2.328,1.2.774.447,1.51.926,2.209,1.423.077.829.12,1.7.12,2.611s-.044,1.788-.121,2.619c-.681.482-1.415.956-2.207,1.414-.774.447-1.557.845-2.337,1.2-.757-.349-1.53-.745-2.32-1.2s-1.526-.931-2.207-1.414C19.144,28.594,19.1,27.721,19.1,26.806ZM17.99,28.489a20.578,20.578,0,0,1-1.858-1.683,20.692,20.692,0,0,1,1.863-1.684c-.036.556-.058,1.116-.058,1.684S17.958,27.938,17.99,28.489Zm1.433-5.84a20.745,20.745,0,0,1,.533-2.445,20.562,20.562,0,0,1,2.376.765c-.493.249-.99.509-1.484.8S19.881,22.347,19.422,22.649Zm5.763-1.679a20.524,20.524,0,0,1,2.387-.768,20.593,20.593,0,0,1,.528,2.452c-.466-.306-.939-.605-1.431-.889s-.991-.547-1.486-.8Zm4.342,4.161a20.79,20.79,0,0,1,1.85,1.685,20.711,20.711,0,0,1-1.851,1.674c.03-.551.052-1.109.052-1.683s-.022-1.127-.053-1.676ZM28.1,30.96a20.6,20.6,0,0,1-.528,2.451,20.657,20.657,0,0,1-2.387-.768c.5-.25.994-.511,1.486-.795S27.637,31.263,28.1,30.96Zm-7.252.888c.493.285.985.546,1.474.793a20.771,20.771,0,0,1-2.38.757,20.544,20.544,0,0,1-.524-2.44C19.877,31.263,20.35,31.561,20.847,31.848Zm2.911,6.6c-1.252,0-2.551-1.452-3.459-3.937a23.209,23.209,0,0,0,3.459-1.2,22.84,22.84,0,0,0,3.459,1.2C26.309,37,25.009,38.449,23.757,38.449Zm10.082-5.821c-.626,1.084-2.535,1.484-5.144,1.026a22.86,22.86,0,0,0,.693-3.6,23.477,23.477,0,0,0,2.417-2.046c-.012.02-.029.037-.041.058a2.328,2.328,0,0,0,2.013,3.493,2.282,2.282,0,0,0,.295-.019A1.986,1.986,0,0,1,33.839,32.627Zm.524-4.4a1.163,1.163,0,1,1-1.4.184,1.164,1.164,0,0,1,1.4-.184Zm-.524-7.24c.626,1.084.018,2.936-1.681,4.964a23.1,23.1,0,0,0-2.77-2.4A22.767,22.767,0,0,0,28.7,19.96C31.3,19.5,33.213,19.9,33.839,20.985Zm-6.622-1.879a22.846,22.846,0,0,0-3.46,1.2,23.433,23.433,0,0,0-2.98-1.071c.024,0,.045.007.069.007a2.328,2.328,0,0,0,2.328-2.328,2.305,2.305,0,0,0-.482-1.4,1.991,1.991,0,0,1,1.064-.344C25.009,15.164,26.31,16.619,27.217,19.106Zm-6.371-3.36a1.164,1.164,0,1,1-1.164,1.164A1.164,1.164,0,0,1,20.847,15.746Zm-7.172,5.239c.625-1.084,2.533-1.483,5.139-1.027a23.268,23.268,0,0,0-.69,3.6,22.818,22.818,0,0,0-2.766,2.4C13.658,23.923,13.046,22.07,13.675,20.985Zm1.683,6.674a22.845,22.845,0,0,0,2.767,2.4,23.416,23.416,0,0,0,.563,3.117c-.012-.021-.017-.044-.029-.065a2.328,2.328,0,0,0-3.181-.852h0a2.309,2.309,0,0,0-.973,1.118,1.987,1.987,0,0,1-.83-.749C13.046,31.543,13.658,29.69,15.358,27.66Z" transform="translate(-4.22 -4.941)"/>
    <path id="Path_27" data-name="Path 27" d="M32.985,33.493a3.493,3.493,0,1,0-3.493,3.493A3.493,3.493,0,0,0,32.985,33.493Zm-5.821,0a2.328,2.328,0,1,1,2.328,2.328A2.328,2.328,0,0,1,27.164,33.493Z" transform="translate(-9.993 -11.658)"/>
    <path id="Path_28" data-name="Path 28" d="M31.75,2H7.25A5.256,5.256,0,0,0,2,7.25v24.5A5.256,5.256,0,0,0,7.25,37h24.5A5.256,5.256,0,0,0,37,31.75V7.25A5.256,5.256,0,0,0,31.75,2ZM7.25,3.167h24.5a4.09,4.09,0,0,1,4.042,3.5H3.208a4.09,4.09,0,0,1,4.042-3.5ZM35.833,31.75a4.088,4.088,0,0,1-4.083,4.083H7.25A4.088,4.088,0,0,1,3.167,31.75V7.833H35.833Z" transform="translate(0 0)"/>
  </g>
</svg>
